<?xml version="1.0" standalone="no"?><!DOCTYPE svg PUBLIC "-//W3C//DTD SVG 1.1//EN" "http://www.w3.org/Graphics/SVG/1.1/DTD/svg11.dtd"><svg data-name="Alipay" width="120" height="40" version="1.1" xmlns="http://www.w3.org/2000/svg" xmlns:xlink="http://www.w3.org/1999/xlink" viewBox="0 0 120 40"><rect class="bg" width="120" height="40" fill="#FFFFFF"></rect><g transform="translate(12, 5.600000000000001) scale(0.96)"><g stroke="none" stroke-width="1" fill="none" fill-rule="evenodd"><g transform="translate(0.000000, -0.000000)"><g fill="#1677FF"><path d="M8.53255968,24.6259402 C2.63856752,24.6164029 0.645508607,19.4706478 3.44186021,16.0892754 C4.05137426,15.3523096 5.08767819,14.6493744 6.69491385,14.2568317 C9.20840065,13.6455836 13.2066567,14.6517587 16.9528272,15.8909449 C17.6286681,14.6534927 18.1982993,13.2907563 18.6233552,11.839584 L7.07163341,11.8209431 L7.0735842,10.6537193 L13.0297849,10.6632565 L13.0330363,8.57200776 L5.8192251,8.56030301 L5.82095914,7.39329603 L13.0349871,7.40478403 L13.0397557,4.42115641 C13.0397557,4.42115641 13.0406227,3.91871916 13.5512966,3.91936942 L16.4625282,3.92413802 L16.4568926,7.41041965 L23.5894207,7.42190764 L23.5874699,8.58913138 L16.4549418,8.57764338 L16.4514737,10.6686754 L22.2739368,10.6782126 C21.7131926,12.9530525 20.8630809,15.0462521 19.7988156,16.8836812 C21.5642821,17.5237576 23.1496256,18.1300204 24.3307216,18.5264646 C28.2303543,19.8358794 29.382622,20.0112339 29.546922,20.0313921 L29.546922,20.0201208 L29.5714286,4.7590769 C29.5757504,2.15195209 27.4628261,0.0366435614 24.8489819,0.0325252233 L4.77186668,0 C2.15715546,-0.00410631082 0.0364280699,2.10448282 0.0323097317,4.71139088 L0,24.7293321 C-0.00432180237,27.3345061 2.1096862,29.4506817 4.72439742,29.4550168 L24.8015127,29.4873252 C27.4153569,29.4914315 29.5350005,27.3821922 29.5391188,24.7770181 L29.5395523,24.5838898 C29.2603724,24.4672758 21.7888399,21.3427576 17.9843625,19.5111809 C15.3772377,22.6994249 12.0171073,24.6315758 8.53255968,24.6259402 Z"></path><path d="M7.19396973,16.0043076 C6.45592018,16.0762701 5.06999101,16.4001016 4.31113302,17.0661886 C2.03672659,19.0369218 3.38970905,22.6487043 7.98534092,22.6560823 C10.6561916,22.6604091 13.3285595,20.961703 15.4295623,18.2386144 C12.4494027,16.78224 9.92442793,15.7398669 7.19396973,16.0043076"></path></g><path d="M84.2500617,7.35817771 L95.5151368,7.35817771 L95.5151368,9.58819257 L99.5368302,9.58819257 L99.5368302,7.35817771 L99.5368302,6.9465083 C99.5368302,6.93984158 99.5368302,6.93650823 99.5368302,6.92984152 C99.5368302,6.33650423 99.0718271,5.85650103 98.4951566,5.84650096 L91.9834466,5.84650096 L91.9834466,3.7664871 L87.7734185,3.7664871 L87.7734185,5.84650096 L80.2283682,5.84650096 L80.2283682,6.601506 L80.2283682,7.35817771 L80.2283682,9.58819257 L84.2500617,9.58819257 L84.2500617,7.35817771 Z" fill="#3E3A39"></path><polygon fill="#3E3A39" points="59.8790659 3.95915505 55.7540384 13.7142201 58.9190595 13.7142201 58.9190595 25.3226308 62.3790825 25.3226308 62.3790825 9.92419481 61.1257408 9.92419481 63.7307582 3.95915505"></polygon><path d="M100,24.7902939 L98.7366582,20.5202655 C98.6516577,20.248597 98.4049894,20.0502623 98.1116541,20.0502623 L94.7632984,20.0502623 L95.7333049,23.3302842 L91.7949453,23.3302842 L91.7949453,16.9785752 L99.5283302,16.9785752 L99.5283302,15.4652318 L91.7949453,15.4652318 L91.7949453,12.4768785 L99.5283302,12.4768785 L99.5283302,10.9635351 L91.7949453,10.9635351 L87.9615864,10.9635351 L80.2282015,10.9635351 L80.2282015,12.4768785 L87.9615864,12.4768785 L87.9615864,15.4652318 L80.2282015,15.4652318 L80.2282015,16.9785752 L87.9615864,16.9785752 L87.9615864,23.3302842 L80.2282015,23.3302842 L80.2282015,24.8419609 L100,24.8419609 L99.9833332,24.7902939 L100,24.7902939 Z" fill="#3E3A39"></path><path d="M68.7277915,11.955875 C68.596124,11.6875399 68.3277889,11.5025387 68.0161201,11.500872 L65.0211001,11.500872 L67.354449,18.8492543 L70.897806,18.8492543 L68.7277915,11.955875 Z" fill="#3E3A39"></path><path d="M76.3101754,4.13648956 L72.7151514,4.13648956 L72.7151514,7.89318127 L63.851759,7.89318127 L63.851759,9.4065247 L72.7151514,9.4065247 L72.7151514,22.9149481 C72.6834846,23.2232835 72.4401496,23.4632851 72.1351476,23.4799519 L70.306802,23.4799519 L70.306802,25.046629 L74.9668331,25.046629 C75.7051714,25.0149621 76.2935086,24.4032913 76.3101754,23.6432863 L76.3101754,23.4799519 L76.3101754,9.4065247 L77.7701851,9.4065247 L77.7701851,7.89318127 L76.3101754,7.89318127 L76.3101754,4.13648956 Z" fill="#3E3A39"></path><path d="M53.8730258,10.9817019 L46.9646464,10.9817019 L46.9646464,8.50668536 L54.9746998,8.50668536 L54.9746998,6.96500842 L46.9646464,6.96500842 L46.9646464,3.82832084 L43.3946226,3.82832084 L43.3946226,3.82832084 C43.0029534,3.82832084 42.6862846,4.15665636 42.6862846,4.56165906 L42.6862846,4.56165906 L42.6862846,6.96500842 L34.7328982,6.96500842 L34.7328982,8.50668536 L42.6862846,8.50668536 L42.6862846,10.9817019 L35.9745732,10.9817019 L35.9745732,12.5217121 L49.3446623,12.5217121 C49.3446623,12.5217121 48.6046574,15.4150648 44.9362996,18.5250855 C41.6512777,16.0367356 40.552937,14.0550557 40.552937,14.0550557 L36.9662464,14.0550557 C38.4162561,16.5700725 40.4779365,18.5850859 42.6979513,20.1817632 C40.6596044,21.5084387 38.0145868,22.7867806 34.594564,23.808454 L34.594564,25.655133 C34.594564,25.655133 39.8695991,24.6584597 44.9712998,21.6534397 C50.0780005,24.6351262 55.2080347,25.655133 55.2080347,25.655133 L55.2080347,23.906788 C51.9246795,22.7117801 49.3246622,21.3967713 47.2813152,20.1300962 C50.2413349,17.9367482 52.8330189,14.9617284 53.8730258,10.9817019" fill="#3E3A39"></path></g></g></g></svg>