<svg width="24" height="24" viewBox="0 0 24 24" fill="none" xmlns="http://www.w3.org/2000/svg">
<g opacity="0.5">
<path d="M11.2292 6.10714H10.2083V4.07143C10.2083 1.83214 8.37083 0 6.125 0C3.87917 0 2.04167 1.83214 2.04167 4.07143V6.10714H1.02083C0.510417 6.10714 0 6.61607 0 7.125V13.2321C0 13.7411 0.510417 14.25 1.02083 14.25H11.2292C11.7396 14.25 12.25 13.7411 12.25 13.2321V7.125C12.25 6.61607 11.7396 6.10714 11.2292 6.10714ZM4.08333 4.07143C4.08333 2.95179 5.00208 2.03571 6.125 2.03571C7.24792 2.03571 8.16667 2.95179 8.16667 4.07143V6.10714H4.08333V4.07143Z" transform="translate(6 5)" fill="black"/>
</g>
</svg>
