<svg width="48" height="48" viewBox="0 0 48 48" fill="none" xmlns="http://www.w3.org/2000/svg">
<path d="M0 5.15625C0 2.30853 2.33591 0 5.21739 0H42.7826C45.6641 0 48 2.30853 48 5.15625V27.8438C48 30.6915 45.6641 33 42.7826 33H5.21739C2.33591 33 0 30.6915 0 27.8438V5.15625Z" transform="translate(0 7.5)" fill="#C4C4C4"/>
<path d="M0 0H48V6.1875H0V0Z" transform="translate(0 14.7188)" fill="black" fill-opacity="0.85"/>
<path d="M0 0H48V12.375H0V0Z" transform="translate(0 24)" fill="white"/>
<path d="M0 1.0725C0.200348 1.0725 0.39513 1.056 0.584348 1.023C0.773565 0.99 0.943304 0.935 1.09357 0.858C1.24939 0.781 1.38017 0.682 1.48591 0.561C1.59722 0.44 1.66957 0.2915 1.70296 0.1155H2.4793V5.8905H1.43583V1.815H0V1.0725Z" transform="translate(6.70312 27.3906)" fill="black"/>
<path d="M8.76241 5.8905H4.77215C4.77772 5.412 4.89459 4.994 5.12276 4.6365C5.35093 4.279 5.66259 3.96825 6.05772 3.70425C6.24694 3.56675 6.4445 3.43475 6.65041 3.30825C6.85633 3.17625 7.04554 3.036 7.21807 2.8875C7.39059 2.739 7.5325 2.5795 7.6438 2.409C7.75511 2.233 7.81354 2.03225 7.81911 1.80675C7.81911 1.70225 7.8052 1.59225 7.77737 1.47675C7.75511 1.35575 7.7078 1.24575 7.63546 1.14675C7.56311 1.04225 7.46293 0.957 7.33493 0.891C7.20693 0.8195 7.03998 0.78375 6.83407 0.78375C6.64485 0.78375 6.48624 0.82225 6.35824 0.89925C6.2358 0.97075 6.13563 1.0725 6.05772 1.2045C5.98537 1.331 5.92972 1.48225 5.89076 1.65825C5.85737 1.83425 5.83789 2.024 5.83233 2.2275H4.88067C4.88067 1.9085 4.92241 1.61425 5.00589 1.34475C5.09494 1.06975 5.22572 0.83325 5.39824 0.63525C5.57076 0.43725 5.77946 0.28325 6.02433 0.17325C6.27476 0.0577499 6.56415 0 6.8925 0C7.24867 0 7.54641 0.0577499 7.78572 0.17325C8.02502 0.28875 8.21702 0.4345 8.36172 0.6105C8.51198 0.7865 8.61772 0.979 8.67894 1.188C8.74015 1.3915 8.77076 1.58675 8.77076 1.77375C8.77076 2.00475 8.73459 2.21375 8.66224 2.40075C8.58989 2.58775 8.4925 2.761 8.37007 2.9205C8.24763 3.0745 8.1085 3.2175 7.95267 3.3495C7.79685 3.4815 7.63546 3.60525 7.4685 3.72075C7.30154 3.83625 7.13459 3.94625 6.96763 4.05075C6.80067 4.15525 6.64485 4.25975 6.50015 4.36425C6.36102 4.46875 6.23859 4.57875 6.13285 4.69425C6.02711 4.80425 5.95476 4.9225 5.9158 5.049H8.76241V5.8905Z" transform="translate(6.70312 27.3906)" fill="black"/>
<path d="M11.2389 2.508C11.3947 2.5135 11.5506 2.5025 11.7064 2.475C11.8622 2.4475 12.0013 2.40075 12.1238 2.33475C12.2462 2.26325 12.3436 2.167 12.416 2.046C12.4939 1.925 12.5328 1.7765 12.5328 1.6005C12.5328 1.353 12.4466 1.155 12.274 1.0065C12.1071 0.858 11.89 0.78375 11.6229 0.78375C11.456 0.78375 11.3113 0.81675 11.1888 0.88275C11.0664 0.94875 10.9634 1.0395 10.88 1.155C10.802 1.265 10.7436 1.3915 10.7047 1.5345C10.6657 1.672 10.649 1.815 10.6546 1.9635H9.70291C9.71404 1.683 9.76691 1.4245 9.86152 1.188C9.95613 0.946 10.0841 0.737 10.2455 0.561C10.4125 0.385 10.6128 0.2475 10.8466 0.1485C11.0803 0.0495 11.3447 0 11.6396 0C11.8678 0 12.0904 0.0329999 12.3074 0.0989997C12.53 0.165 12.7276 0.26125 12.9001 0.38775C13.0782 0.51425 13.2201 0.6765 13.3259 0.8745C13.4316 1.067 13.4845 1.28975 13.4845 1.54275C13.4845 1.83425 13.4177 2.09 13.2841 2.31C13.1506 2.5245 12.9419 2.68125 12.658 2.78025V2.79675C12.992 2.86275 13.2507 3.02775 13.4344 3.29175C13.6236 3.55025 13.7182 3.8665 13.7182 4.2405C13.7182 4.5155 13.6626 4.763 13.5513 4.983C13.44 5.1975 13.2897 5.38175 13.1005 5.53575C12.9113 5.68425 12.6914 5.79975 12.441 5.88225C12.1906 5.96475 11.9262 6.006 11.648 6.006C11.3085 6.006 11.0107 5.95925 10.7547 5.86575C10.5043 5.76675 10.2928 5.62925 10.1203 5.45325C9.95335 5.27725 9.82535 5.0655 9.7363 4.818C9.64726 4.5705 9.59996 4.2955 9.59439 3.993H10.546C10.5349 4.345 10.6212 4.63925 10.8048 4.87575C10.994 5.10675 11.2751 5.22225 11.648 5.22225C11.9652 5.22225 12.2295 5.13425 12.441 4.95825C12.658 4.77675 12.7666 4.521 12.7666 4.191C12.7666 3.9655 12.722 3.78675 12.633 3.65475C12.544 3.52275 12.4271 3.42375 12.2824 3.35775C12.1377 3.28625 11.9735 3.24225 11.7899 3.22575C11.6118 3.20925 11.4281 3.20375 11.2389 3.20925V2.508Z" transform="translate(6.70312 27.3906)" fill="black"/>
<path d="M15.1596 3.7785H16.9293V1.2375H16.9126L15.1596 3.7785ZM18.5822 4.521H17.8309V5.8905H16.9293V4.521H14.425V3.58875L16.9293 0.1155H17.8309V3.7785H18.5822V4.521Z" transform="translate(6.70312 27.3906)" fill="black"/>
<path d="M25.6278 0.1155H28.6497V0.957H26.3373L26.0368 2.4255L26.0535 2.442C26.1815 2.299 26.3429 2.19175 26.5377 2.12025C26.738 2.04325 26.9356 2.00475 27.1304 2.00475C27.4198 2.00475 27.6786 2.05425 27.9067 2.15325C28.1349 2.24675 28.3269 2.3815 28.4827 2.5575C28.6386 2.728 28.7554 2.9315 28.8333 3.168C28.9168 3.4045 28.9586 3.66025 28.9586 3.93525C28.9586 4.16625 28.9196 4.4055 28.8417 4.653C28.7693 4.895 28.6497 5.11775 28.4827 5.32125C28.3213 5.51925 28.1127 5.68425 27.8567 5.81625C27.6007 5.94275 27.2946 6.006 26.9384 6.006C26.6546 6.006 26.3902 5.9675 26.1453 5.8905C25.906 5.819 25.6946 5.709 25.5109 5.5605C25.3273 5.412 25.1798 5.2305 25.0685 5.016C24.9627 4.796 24.9043 4.54025 24.8932 4.24875H25.8448C25.8727 4.56225 25.9812 4.80425 26.1704 4.97475C26.3596 5.13975 26.61 5.22225 26.9217 5.22225C27.122 5.22225 27.2918 5.18925 27.4309 5.12325C27.57 5.05725 27.6813 4.9665 27.7648 4.851C27.8539 4.7355 27.9151 4.60075 27.9485 4.44675C27.9874 4.29275 28.0069 4.12775 28.0069 3.95175C28.0069 3.79225 27.9847 3.641 27.9401 3.498C27.8956 3.3495 27.8288 3.22025 27.7398 3.11025C27.6507 3.00025 27.5339 2.91225 27.3892 2.84625C27.25 2.78025 27.0859 2.74725 26.8967 2.74725C26.6963 2.74725 26.5071 2.78575 26.329 2.86275C26.1565 2.93425 26.0313 3.07175 25.9533 3.27525H25.0017L25.6278 0.1155Z" transform="translate(6.70312 27.3906)" fill="black"/>
<path d="M32.7874 1.57575C32.7652 1.33925 32.6789 1.1495 32.5286 1.0065C32.3839 0.858 32.1864 0.78375 31.9359 0.78375C31.7634 0.78375 31.6132 0.81675 31.4852 0.88275C31.3627 0.94325 31.257 1.02575 31.1679 1.13025C31.0845 1.23475 31.0149 1.35575 30.9592 1.49325C30.9092 1.62525 30.8674 1.7655 30.834 1.914C30.8006 2.0625 30.7756 2.211 30.7589 2.3595C30.7478 2.5025 30.7366 2.63725 30.7255 2.76375L30.7422 2.78025C30.8702 2.54925 31.0455 2.37875 31.2681 2.26875C31.4963 2.15325 31.7412 2.0955 32.0027 2.0955C32.2921 2.0955 32.5509 2.145 32.7791 2.244C33.0072 2.343 33.1992 2.4805 33.3551 2.6565C33.5165 2.827 33.6389 3.0305 33.7224 3.267C33.8058 3.5035 33.8476 3.75925 33.8476 4.03425C33.8476 4.31475 33.8003 4.576 33.7057 4.818C33.6166 5.0545 33.4858 5.2635 33.3133 5.445C33.1408 5.621 32.9349 5.7585 32.6956 5.8575C32.4563 5.9565 32.1919 6.006 31.9025 6.006C31.474 6.006 31.1206 5.929 30.8424 5.775C30.5697 5.6155 30.3526 5.401 30.1912 5.1315C30.0354 4.8565 29.9269 4.5375 29.8657 4.1745C29.8045 3.806 29.7738 3.41 29.7738 2.9865C29.7738 2.64 29.81 2.29075 29.8824 1.93875C29.9603 1.58675 30.0855 1.26775 30.258 0.98175C30.4305 0.69025 30.6559 0.45375 30.9342 0.27225C31.218 0.09075 31.5658 0 31.9777 0C32.2114 0 32.4312 0.0385 32.6372 0.1155C32.8431 0.1925 33.0239 0.29975 33.1798 0.43725C33.3412 0.57475 33.4719 0.73975 33.5721 0.93225C33.6723 1.12475 33.7279 1.33925 33.7391 1.57575H32.7874ZM31.8692 5.22225C32.0417 5.22225 32.1919 5.18925 32.3199 5.12325C32.4479 5.05175 32.5537 4.961 32.6372 4.851C32.7262 4.741 32.7902 4.6145 32.8292 4.4715C32.8737 4.323 32.8959 4.17175 32.8959 4.01775C32.8959 3.86375 32.8737 3.71525 32.8292 3.57225C32.7902 3.42925 32.7262 3.3055 32.6372 3.201C32.5537 3.091 32.4479 3.003 32.3199 2.937C32.1919 2.871 32.0417 2.838 31.8692 2.838C31.6966 2.838 31.5436 2.871 31.41 2.937C31.282 2.9975 31.1735 3.08275 31.0845 3.19275C30.9954 3.29725 30.9286 3.421 30.8841 3.564C30.8396 3.707 30.8173 3.85825 30.8173 4.01775C30.8173 4.17725 30.8396 4.3285 30.8841 4.4715C30.9286 4.6145 30.9954 4.74375 31.0845 4.85925C31.1735 4.96925 31.282 5.05725 31.41 5.12325C31.5436 5.18925 31.6966 5.22225 31.8692 5.22225Z" transform="translate(6.70312 27.3906)" fill="black"/>
<path d="M34.6712 0.1155H38.6698V0.89925C38.3637 1.24025 38.0855 1.595 37.835 1.9635C37.5846 2.3265 37.3648 2.71425 37.1756 3.12675C36.9919 3.53375 36.8417 3.9655 36.7248 4.422C36.6079 4.8785 36.53 5.368 36.491 5.8905H35.4476C35.481 5.434 35.5589 4.983 35.6813 4.5375C35.8093 4.092 35.9707 3.66025 36.1655 3.24225C36.3658 2.82425 36.5968 2.42275 36.8583 2.03775C37.1199 1.65275 37.401 1.2925 37.7015 0.957H34.6712V0.1155Z" transform="translate(6.70312 27.3906)" fill="black"/>
<path fill-rule="evenodd" clip-rule="evenodd" d="M18.7826 1.03125H1.04348V11.3438H18.7826V1.03125ZM0 0V12.375H19.8261V0H0Z" transform="translate(28.1738 24)" fill="#FF2828"/>
</svg>
